<svg width="50" height="50" viewBox="0 0 50 50" fill="none" xmlns="http://www.w3.org/2000/svg">
<path fill-rule="evenodd" clip-rule="evenodd" d="M15.959 36.7214C15.9859 36.8149 16 36.908 16 37C16 38.3807 12.321 39 10.2499 39C8.17888 39 7 37.8807 7 36.5C7 35.1193 8.67893 34 10.75 34C12.0841 34 13.8779 34.6719 14.9856 35.5191L33.75 10.5L34.95 11.4L15.959 36.7214ZM10.75 36H14.25V35.5H10.75V36ZM14.25 37.5H9.75V37H14.25V37.5Z" fill="#2E414F"/>
<path fill-rule="evenodd" clip-rule="evenodd" d="M33.241 36.7214C33.2141 36.8149 33.2 36.908 33.2 37C33.2 38.3807 36.879 39 38.9501 39C41.0211 39 42.2 37.8807 42.2 36.5C42.2 35.1193 40.521 34 38.45 34C37.1159 34 35.322 34.6719 34.2144 35.5191L15.45 10.5L14.25 11.4L33.241 36.7214ZM38.45 36H34.95V35.5H38.45V36ZM34.95 37.5H39.45V37H34.95V37.5Z" fill="#2E414F"/>
<path d="M24.5 36C25.3284 36 26 36.6716 26 37.5C26 38.3284 25.3284 39 24.5 39C23.6716 39 23 38.3284 23 37.5C23 36.6716 23.6716 36 24.5 36Z" fill="#2E414F"/>
</svg>
