<svg width="50" height="50" viewBox="0 0 50 50" fill="none" xmlns="http://www.w3.org/2000/svg">
<path d="M21.0923 42.5847C27.2184 42.5847 32.1847 41.6889 32.1847 40.5838C32.1847 39.4788 27.2184 38.583 21.0923 38.583C14.9662 38.583 10 39.4788 10 40.5838C10 41.6889 14.9662 42.5847 21.0923 42.5847Z" fill="#2E414F"/>
<path fill-rule="evenodd" clip-rule="evenodd" d="M20.207 10H22.1589V36.4578H20.207V10Z" fill="#2E414F"/>
<path fill-rule="evenodd" clip-rule="evenodd" d="M24.3555 10.2106C24.3555 10.2106 27.712 9.35313 33.4408 13.1935C39.1697 17.0359 38.0325 20.3638 41.8178 20.6374C43.8553 20.5026 40.9603 23.022 38.0325 21.8705C32.3547 19.639 30.6826 16.4867 24.3555 19.4001V10.2106V10.2106Z" fill="#2E414F"/>
<path d="M38.471 42.442C40.6642 42.442 42.442 40.6642 42.442 38.471C42.442 36.2779 40.6642 34.5 38.471 34.5C36.2779 34.5 34.5 36.2779 34.5 38.471C34.5 40.6642 36.2779 42.442 38.471 42.442Z" fill="#2E414F"/>
</svg>
