<svg width="50" height="50" viewBox="0 0 50 50" fill="none" xmlns="http://www.w3.org/2000/svg">
<path d="M12.5 7.04878V7.65854C12.5 8.87805 13.4146 9.79268 14.6341 9.79268C15.5488 9.79268 16.1585 9.18293 16.4634 8.26829L17.0732 6.7439L34.1463 13.7561L22.2561 21.9878C21.0366 22.9024 21.0366 24.1219 21.3415 25.3415L24.0854 31.7439L20.122 43.6341C19.5122 45.1585 20.7317 46.378 21.9512 46.378C22.8659 46.378 23.4756 46.0732 23.7805 44.8537L28.0488 32.6585L28.3537 33.5732V44.2439C28.3537 44.2439 28.3537 46.378 30.4878 46.378C32.6219 46.378 32.6219 44.2439 32.6219 44.2439V34.1829C32.6219 33.5732 32.6219 33.2683 32.3171 32.6585L28.0488 22.2927L36.2805 16.5C36.8902 15.8902 37.5 15.5854 37.5 14.6707C37.5 13.7561 36.8902 13.1463 36.2805 12.8415L14.3293 4C14.061 4 13.9695 4.05488 13.7195 4.30488L12.5 7.04878ZM18.9024 12.8415C16.4634 12.8415 14.3293 14.9756 14.3293 17.4146C14.3293 19.8537 16.4634 21.9878 18.9024 21.9878C21.3415 21.9878 23.4756 19.8537 23.4756 17.4146C23.4756 14.9756 21.3415 12.8415 18.9024 12.8415Z" fill="#0c2e6e"/>
</svg>
