<svg width="482" height="481" viewBox="0 0 482 481" fill="none" xmlns="http://www.w3.org/2000/svg">
<path fill-rule="evenodd" clip-rule="evenodd" d="M451.5 240.5C451.5 356.756 357.256 451 241 451C237.938 451 234.891 450.935 231.861 450.805V470.822C234.893 470.94 237.939 471 241 471C368.302 471 471.5 367.802 471.5 240.5C471.5 113.198 368.302 10 241 10C113.698 10 10.5 113.198 10.5 240.5C10.5 354.285 92.9477 448.814 201.361 467.605V447.274C104.055 428.732 30.5 343.206 30.5 240.5C30.5 124.244 124.744 30 241 30C357.256 30 451.5 124.244 451.5 240.5Z" fill="#00AAE7"/>
<path fill-rule="evenodd" clip-rule="evenodd" d="M231.963 253.95V453.841H251.963V253.95H231.963ZM231.963 226.123H251.963V17.8848H231.963V226.123Z" fill="#00AAE7"/>
<path fill-rule="evenodd" clip-rule="evenodd" d="M344.705 253.95C342.189 269.428 335.16 282.608 323.654 292.681C308.687 305.784 283.886 315.576 245.637 315.576C244.544 315.576 243.462 315.568 242.391 315.552V335.554C243.465 335.568 244.547 335.576 245.637 335.576C321.436 335.576 358.958 300.089 364.909 253.95H344.705ZM364.796 226.123C358.531 180.436 321.348 145.425 245.637 145.425C244.547 145.425 243.465 145.432 242.391 145.447V165.448C243.462 165.433 244.544 165.425 245.637 165.425C284.145 165.425 308.92 175.229 323.806 188.301C335.025 198.152 341.949 211.003 344.565 226.123H364.796Z" fill="#00AAE7"/>
</svg>
