<svg width="481" height="481" viewBox="0 0 481 481" fill="none" xmlns="http://www.w3.org/2000/svg">
<path fill-rule="evenodd" clip-rule="evenodd" d="M451 240.5C451 356.756 356.756 451 240.5 451C237.438 451 234.391 450.935 231.361 450.805V470.822C234.393 470.94 237.439 471 240.5 471C367.802 471 471 367.802 471 240.5C471 113.198 367.802 10 240.5 10C113.198 10 10 113.198 10 240.5C10 354.285 92.4477 448.814 200.861 467.605V447.274C103.555 428.732 30 343.206 30 240.5C30 124.244 124.244 30 240.5 30C356.756 30 451 124.244 451 240.5Z" fill="#0C2E6E"/>
<path fill-rule="evenodd" clip-rule="evenodd" d="M231.463 253.95V453.841H251.463V253.95H231.463ZM231.463 226.123H251.463V17.8848H231.463V226.123Z" fill="#0C2E6E"/>
<path fill-rule="evenodd" clip-rule="evenodd" d="M344.205 253.95C341.689 269.428 334.66 282.608 323.154 292.681C308.187 305.784 283.386 315.576 245.137 315.576C244.044 315.576 242.962 315.568 241.891 315.552V335.554C242.965 335.568 244.047 335.576 245.137 335.576C320.936 335.576 358.458 300.089 364.41 253.95H344.205ZM364.296 226.123C358.031 180.436 320.848 145.425 245.137 145.425C244.047 145.425 242.965 145.432 241.891 145.447V165.448C242.962 165.433 244.044 165.425 245.137 165.425C283.645 165.425 308.42 175.229 323.306 188.301C334.525 198.152 341.449 211.003 344.065 226.123H364.296Z" fill="#0C2E6E"/>
</svg>
