<svg width="541" height="751" viewBox="0 0 541 751" fill="none" xmlns="http://www.w3.org/2000/svg">
<path fill-rule="evenodd" clip-rule="evenodd" d="M481 240.5C481 356.756 386.756 451 270.5 451C267.27 451 264.056 450.927 260.861 450.783V470.802C264.058 470.934 267.271 471 270.5 471C397.802 471 501 367.802 501 240.5C501 113.198 397.802 10 270.5 10C143.198 10 40 113.198 40 240.5C40 354.984 123.463 449.974 232.861 467.942V447.645C134.565 429.901 60 343.908 60 240.5C60 124.244 154.244 30 270.5 30C386.756 30 481 124.244 481 240.5Z" fill="white"/>
<path fill-rule="evenodd" clip-rule="evenodd" d="M260.963 253.95V453.841H280.963V253.95H260.963ZM260.963 226.123H280.963V17.8848H260.963V226.123Z" fill="white"/>
<path fill-rule="evenodd" clip-rule="evenodd" d="M374.205 253.95C371.689 269.428 364.66 282.608 353.154 292.681C338.187 305.784 313.386 315.576 275.137 315.576C274.044 315.576 272.962 315.568 271.891 315.552V335.554C272.965 335.568 274.047 335.576 275.137 335.576C350.936 335.576 388.458 300.089 394.409 253.95H374.205ZM394.296 226.123C388.031 180.436 350.848 145.425 275.137 145.425C274.047 145.425 272.965 145.432 271.891 145.447V165.448C272.962 165.433 274.044 165.425 275.137 165.425C313.645 165.425 338.42 175.229 353.306 188.301C364.525 198.152 371.449 211.003 374.065 226.123H394.296Z" fill="white"/>
<path d="M149.492 568.73C152.712 569.43 155.185 570.83 156.912 572.93C158.685 574.983 159.572 577.643 159.572 580.91C159.572 585.11 158.008 588.353 154.882 590.64C151.802 592.88 147.228 594 141.162 594H118.622V545H139.762C145.222 545 149.445 546.097 152.432 548.29C155.465 550.483 156.982 553.587 156.982 557.6C156.982 560.307 156.305 562.617 154.952 564.53C153.645 566.397 151.825 567.797 149.492 568.73ZM123.802 549.27V567.05H139.412C143.378 567.05 146.435 566.303 148.582 564.81C150.728 563.27 151.802 561.053 151.802 558.16C151.802 555.267 150.728 553.073 148.582 551.58C146.435 550.04 143.378 549.27 139.412 549.27H123.802ZM141.092 589.73C145.478 589.73 148.792 588.983 151.032 587.49C153.272 585.997 154.392 583.663 154.392 580.49C154.392 574.377 149.958 571.32 141.092 571.32H123.802V589.73H141.092ZM189.735 545C195.988 545 200.888 546.493 204.435 549.48C207.982 552.467 209.755 556.573 209.755 561.8C209.755 567.027 207.982 571.133 204.435 574.12C200.888 577.06 195.988 578.53 189.735 578.53H176.575V594H171.395V545H189.735ZM189.595 573.98C194.448 573.98 198.158 572.93 200.725 570.83C203.292 568.683 204.575 565.673 204.575 561.8C204.575 557.833 203.292 554.8 200.725 552.7C198.158 550.553 194.448 549.48 189.595 549.48H176.575V573.98H189.595ZM274.469 569.5H279.439V588.19C277.153 590.197 274.446 591.737 271.319 592.81C268.193 593.883 264.903 594.42 261.449 594.42C256.549 594.42 252.139 593.347 248.219 591.2C244.299 589.053 241.219 586.09 238.979 582.31C236.739 578.483 235.619 574.213 235.619 569.5C235.619 564.787 236.739 560.54 238.979 556.76C241.219 552.933 244.299 549.947 248.219 547.8C252.139 545.653 256.573 544.58 261.519 544.58C265.253 544.58 268.683 545.187 271.809 546.4C274.936 547.567 277.573 549.317 279.719 551.65L276.499 554.94C272.626 551.113 267.703 549.2 261.729 549.2C257.763 549.2 254.169 550.087 250.949 551.86C247.776 553.587 245.279 556.013 243.459 559.14C241.639 562.22 240.729 565.673 240.729 569.5C240.729 573.327 241.639 576.78 243.459 579.86C245.279 582.94 247.776 585.367 250.949 587.14C254.123 588.913 257.693 589.8 261.659 589.8C266.699 589.8 270.969 588.54 274.469 586.02V569.5ZM315.52 594.42C310.667 594.42 306.257 593.347 302.29 591.2C298.37 589.007 295.29 586.02 293.05 582.24C290.857 578.46 289.76 574.213 289.76 569.5C289.76 564.787 290.857 560.54 293.05 556.76C295.29 552.98 298.37 550.017 302.29 547.87C306.257 545.677 310.667 544.58 315.52 544.58C320.373 544.58 324.737 545.653 328.61 547.8C332.53 549.947 335.61 552.933 337.85 556.76C340.09 560.54 341.21 564.787 341.21 569.5C341.21 574.213 340.09 578.483 337.85 582.31C335.61 586.09 332.53 589.053 328.61 591.2C324.737 593.347 320.373 594.42 315.52 594.42ZM315.52 589.8C319.393 589.8 322.893 588.937 326.02 587.21C329.147 585.437 331.597 583.01 333.37 579.93C335.143 576.803 336.03 573.327 336.03 569.5C336.03 565.673 335.143 562.22 333.37 559.14C331.597 556.013 329.147 553.587 326.02 551.86C322.893 550.087 319.393 549.2 315.52 549.2C311.647 549.2 308.123 550.087 304.95 551.86C301.823 553.587 299.35 556.013 297.53 559.14C295.757 562.22 294.87 565.673 294.87 569.5C294.87 573.327 295.757 576.803 297.53 579.93C299.35 583.01 301.823 585.437 304.95 587.21C308.123 588.937 311.647 589.8 315.52 589.8ZM352.821 545H358.001V589.52H385.441V594H352.821V545ZM399.222 549.48V568.73H424.562V573.21H399.222V594H394.042V545H427.642V549.48H399.222ZM65.302 697.3H26.302L17.902 716H10.202L42.202 646H49.502L81.502 716H73.702L65.302 697.3ZM62.602 691.3L45.802 653.7L29.002 691.3H62.602ZM122.505 716.6C115.572 716.6 109.305 715.067 103.705 712C98.1717 708.933 93.8051 704.7 90.6051 699.3C87.4717 693.833 85.9051 687.733 85.9051 681C85.9051 674.267 87.4717 668.2 90.6051 662.8C93.8051 657.333 98.2051 653.067 103.805 650C109.405 646.933 115.672 645.4 122.605 645.4C127.805 645.4 132.605 646.267 137.005 648C141.405 649.733 145.138 652.267 148.205 655.6L143.505 660.3C138.038 654.767 131.138 652 122.805 652C117.272 652 112.238 653.267 107.705 655.8C103.172 658.333 99.6051 661.8 97.0051 666.2C94.4717 670.6 93.2051 675.533 93.2051 681C93.2051 686.467 94.4717 691.4 97.0051 695.8C99.6051 700.2 103.172 703.667 107.705 706.2C112.238 708.733 117.272 710 122.805 710C131.205 710 138.105 707.2 143.505 701.6L148.205 706.3C145.138 709.633 141.372 712.2 136.905 714C132.505 715.733 127.705 716.6 122.505 716.6ZM206.122 697.3H167.122L158.722 716H151.022L183.022 646H190.322L222.322 716H214.522L206.122 697.3ZM203.422 691.3L186.622 653.7L169.822 691.3H203.422ZM233.902 646H262.402C269.802 646 276.335 647.5 282.002 650.5C287.669 653.433 292.069 657.567 295.202 662.9C298.335 668.167 299.902 674.2 299.902 681C299.902 687.8 298.335 693.867 295.202 699.2C292.069 704.467 287.669 708.6 282.002 711.6C276.335 714.533 269.802 716 262.402 716H233.902V646ZM262.002 709.6C268.135 709.6 273.502 708.4 278.102 706C282.702 703.533 286.269 700.167 288.802 695.9C291.335 691.567 292.602 686.6 292.602 681C292.602 675.4 291.335 670.467 288.802 666.2C286.269 661.867 282.702 658.5 278.102 656.1C273.502 653.633 268.135 652.4 262.002 652.4H241.302V709.6H262.002ZM366.019 709.6V716H316.519V646H364.519V652.4H323.919V677.3H360.119V683.6H323.919V709.6H366.019ZM456.114 646V716H449.014V660L421.514 707.1H418.014L390.514 660.3V716H383.414V646H389.514L419.914 697.9L450.014 646H456.114ZM502.921 691.8V716H495.621V691.8L467.621 646H475.521L499.521 685.3L523.521 646H530.921L502.921 691.8Z" fill="white"/>
</svg>
