<svg width="542" height="751" viewBox="0 0 542 751" fill="none" xmlns="http://www.w3.org/2000/svg">
<path fill-rule="evenodd" clip-rule="evenodd" d="M481.5 240.5C481.5 356.756 387.256 451 271 451C267.77 451 264.556 450.927 261.361 450.783V470.802C264.558 470.934 267.771 471 271 471C398.302 471 501.5 367.802 501.5 240.5C501.5 113.198 398.302 10 271 10C143.698 10 40.5 113.198 40.5 240.5C40.5 354.984 123.963 449.974 233.361 467.942V447.645C135.065 429.901 60.5 343.908 60.5 240.5C60.5 124.244 154.744 30 271 30C387.256 30 481.5 124.244 481.5 240.5Z" fill="white"/>
<path fill-rule="evenodd" clip-rule="evenodd" d="M261.463 253.95V453.841H281.463V253.95H261.463ZM261.463 226.123H281.463V17.8848H261.463V226.123Z" fill="white"/>
<path fill-rule="evenodd" clip-rule="evenodd" d="M374.705 253.95C372.189 269.428 365.16 282.608 353.654 292.681C338.687 305.784 313.886 315.576 275.637 315.576C274.544 315.576 273.462 315.568 272.391 315.552V335.554C273.465 335.568 274.547 335.576 275.637 335.576C351.436 335.576 388.958 300.089 394.909 253.95H374.705ZM394.796 226.123C388.531 180.436 351.348 145.425 275.637 145.425C274.547 145.425 273.465 145.432 272.391 145.447V165.448C273.462 165.433 274.544 165.425 275.637 165.425C314.145 165.425 338.92 175.229 353.806 188.301C365.025 198.152 371.949 211.003 374.565 226.123H394.796Z" fill="white"/>
<g filter="url(#filter0_d_1569_60996)">
<path d="M149.992 568.73C153.212 569.43 155.685 570.83 157.412 572.93C159.185 574.983 160.072 577.643 160.072 580.91C160.072 585.11 158.508 588.353 155.382 590.64C152.302 592.88 147.728 594 141.662 594H119.122V545H140.262C145.722 545 149.945 546.097 152.932 548.29C155.965 550.483 157.482 553.587 157.482 557.6C157.482 560.307 156.805 562.617 155.452 564.53C154.145 566.397 152.325 567.797 149.992 568.73ZM124.302 549.27V567.05H139.912C143.878 567.05 146.935 566.303 149.082 564.81C151.228 563.27 152.302 561.053 152.302 558.16C152.302 555.267 151.228 553.073 149.082 551.58C146.935 550.04 143.878 549.27 139.912 549.27H124.302ZM141.592 589.73C145.978 589.73 149.292 588.983 151.532 587.49C153.772 585.997 154.892 583.663 154.892 580.49C154.892 574.377 150.458 571.32 141.592 571.32H124.302V589.73H141.592ZM190.235 545C196.488 545 201.388 546.493 204.935 549.48C208.482 552.467 210.255 556.573 210.255 561.8C210.255 567.027 208.482 571.133 204.935 574.12C201.388 577.06 196.488 578.53 190.235 578.53H177.075V594H171.895V545H190.235ZM190.095 573.98C194.948 573.98 198.658 572.93 201.225 570.83C203.792 568.683 205.075 565.673 205.075 561.8C205.075 557.833 203.792 554.8 201.225 552.7C198.658 550.553 194.948 549.48 190.095 549.48H177.075V573.98H190.095ZM274.969 569.5H279.939V588.19C277.653 590.197 274.946 591.737 271.819 592.81C268.693 593.883 265.403 594.42 261.949 594.42C257.049 594.42 252.639 593.347 248.719 591.2C244.799 589.053 241.719 586.09 239.479 582.31C237.239 578.483 236.119 574.213 236.119 569.5C236.119 564.787 237.239 560.54 239.479 556.76C241.719 552.933 244.799 549.947 248.719 547.8C252.639 545.653 257.073 544.58 262.019 544.58C265.753 544.58 269.183 545.187 272.309 546.4C275.436 547.567 278.073 549.317 280.219 551.65L276.999 554.94C273.126 551.113 268.203 549.2 262.229 549.2C258.263 549.2 254.669 550.087 251.449 551.86C248.276 553.587 245.779 556.013 243.959 559.14C242.139 562.22 241.229 565.673 241.229 569.5C241.229 573.327 242.139 576.78 243.959 579.86C245.779 582.94 248.276 585.367 251.449 587.14C254.623 588.913 258.193 589.8 262.159 589.8C267.199 589.8 271.469 588.54 274.969 586.02V569.5ZM316.02 594.42C311.167 594.42 306.757 593.347 302.79 591.2C298.87 589.007 295.79 586.02 293.55 582.24C291.357 578.46 290.26 574.213 290.26 569.5C290.26 564.787 291.357 560.54 293.55 556.76C295.79 552.98 298.87 550.017 302.79 547.87C306.757 545.677 311.167 544.58 316.02 544.58C320.873 544.58 325.237 545.653 329.11 547.8C333.03 549.947 336.11 552.933 338.35 556.76C340.59 560.54 341.71 564.787 341.71 569.5C341.71 574.213 340.59 578.483 338.35 582.31C336.11 586.09 333.03 589.053 329.11 591.2C325.237 593.347 320.873 594.42 316.02 594.42ZM316.02 589.8C319.893 589.8 323.393 588.937 326.52 587.21C329.647 585.437 332.097 583.01 333.87 579.93C335.643 576.803 336.53 573.327 336.53 569.5C336.53 565.673 335.643 562.22 333.87 559.14C332.097 556.013 329.647 553.587 326.52 551.86C323.393 550.087 319.893 549.2 316.02 549.2C312.147 549.2 308.623 550.087 305.45 551.86C302.323 553.587 299.85 556.013 298.03 559.14C296.257 562.22 295.37 565.673 295.37 569.5C295.37 573.327 296.257 576.803 298.03 579.93C299.85 583.01 302.323 585.437 305.45 587.21C308.623 588.937 312.147 589.8 316.02 589.8ZM353.321 545H358.501V589.52H385.941V594H353.321V545ZM399.722 549.48V568.73H425.062V573.21H399.722V594H394.542V545H428.142V549.48H399.722ZM65.802 697.3H26.802L18.402 716H10.702L42.702 646H50.002L82.002 716H74.202L65.802 697.3ZM63.102 691.3L46.302 653.7L29.502 691.3H63.102ZM123.005 716.6C116.072 716.6 109.805 715.067 104.205 712C98.6717 708.933 94.3051 704.7 91.1051 699.3C87.9717 693.833 86.4051 687.733 86.4051 681C86.4051 674.267 87.9717 668.2 91.1051 662.8C94.3051 657.333 98.7051 653.067 104.305 650C109.905 646.933 116.172 645.4 123.105 645.4C128.305 645.4 133.105 646.267 137.505 648C141.905 649.733 145.638 652.267 148.705 655.6L144.005 660.3C138.538 654.767 131.638 652 123.305 652C117.772 652 112.738 653.267 108.205 655.8C103.672 658.333 100.105 661.8 97.5051 666.2C94.9717 670.6 93.7051 675.533 93.7051 681C93.7051 686.467 94.9717 691.4 97.5051 695.8C100.105 700.2 103.672 703.667 108.205 706.2C112.738 708.733 117.772 710 123.305 710C131.705 710 138.605 707.2 144.005 701.6L148.705 706.3C145.638 709.633 141.872 712.2 137.405 714C133.005 715.733 128.205 716.6 123.005 716.6ZM206.622 697.3H167.622L159.222 716H151.522L183.522 646H190.822L222.822 716H215.022L206.622 697.3ZM203.922 691.3L187.122 653.7L170.322 691.3H203.922ZM234.402 646H262.902C270.302 646 276.835 647.5 282.502 650.5C288.169 653.433 292.569 657.567 295.702 662.9C298.835 668.167 300.402 674.2 300.402 681C300.402 687.8 298.835 693.867 295.702 699.2C292.569 704.467 288.169 708.6 282.502 711.6C276.835 714.533 270.302 716 262.902 716H234.402V646ZM262.502 709.6C268.635 709.6 274.002 708.4 278.602 706C283.202 703.533 286.769 700.167 289.302 695.9C291.835 691.567 293.102 686.6 293.102 681C293.102 675.4 291.835 670.467 289.302 666.2C286.769 661.867 283.202 658.5 278.602 656.1C274.002 653.633 268.635 652.4 262.502 652.4H241.802V709.6H262.502ZM366.519 709.6V716H317.019V646H365.019V652.4H324.419V677.3H360.619V683.6H324.419V709.6H366.519ZM456.614 646V716H449.514V660L422.014 707.1H418.514L391.014 660.3V716H383.914V646H390.014L420.414 697.9L450.514 646H456.614ZM503.421 691.8V716H496.121V691.8L468.121 646H476.021L500.021 685.3L524.021 646H531.421L503.421 691.8Z" fill="white"/>
</g>
<defs>
<filter id="filter0_d_1569_60996" x="6.70117" y="544.58" width="528.721" height="180.02" filterUnits="userSpaceOnUse" color-interpolation-filters="sRGB">
<feFlood flood-opacity="0" result="BackgroundImageFix"/>
<feColorMatrix in="SourceAlpha" type="matrix" values="0 0 0 0 0 0 0 0 0 0 0 0 0 0 0 0 0 0 127 0" result="hardAlpha"/>
<feOffset dy="4"/>
<feGaussianBlur stdDeviation="2"/>
<feComposite in2="hardAlpha" operator="out"/>
<feColorMatrix type="matrix" values="0 0 0 0 0 0 0 0 0 0 0 0 0 0 0 0 0 0 0.25 0"/>
<feBlend mode="normal" in2="BackgroundImageFix" result="effect1_dropShadow_1569_60996"/>
<feBlend mode="normal" in="SourceGraphic" in2="effect1_dropShadow_1569_60996" result="shape"/>
</filter>
</defs>
</svg>
