<svg width="482" height="481" viewBox="0 0 482 481" fill="none" xmlns="http://www.w3.org/2000/svg">
<path fill-rule="evenodd" clip-rule="evenodd" d="M451.5 240.5C451.5 356.756 357.256 451 241 451C237.938 451 234.891 450.935 231.861 450.805V470.822C234.893 470.94 237.939 471 241 471C368.302 471 471.5 367.802 471.5 240.5C471.5 113.198 368.302 10 241 10C113.698 10 10.5 113.198 10.5 240.5C10.5 354.285 92.9477 448.814 201.361 467.605V447.274C104.055 428.732 30.5 343.206 30.5 240.5C30.5 124.244 124.744 30 241 30C357.256 30 451.5 124.244 451.5 240.5Z" fill="#00AAE7"/>
<path fill-rule="evenodd" clip-rule="evenodd" d="M231.963 253.95V453.841H251.963V253.95H231.963ZM231.963 226.123H251.963V17.8848H231.963V226.123Z" fill="#00AAE7"/>
<path fill-rule="evenodd" clip-rule="evenodd" d="M344.705 253.95C342.189 269.428 335.16 282.608 323.654 292.681C308.687 305.784 283.886 315.576 245.637 315.576C244.544 315.576 243.462 315.568 242.391 315.552V335.554C243.465 335.568 244.547 335.576 245.637 335.576C321.436 335.576 358.958 300.089 364.91 253.95H344.705ZM364.796 226.123C358.531 180.436 321.348 145.425 245.637 145.425C244.547 145.425 243.465 145.432 242.391 145.447V165.448C243.462 165.433 244.544 165.425 245.637 165.425C284.145 165.425 308.92 175.229 323.806 188.301C335.025 198.152 341.949 211.003 344.565 226.123H364.796Z" fill="#00AAE7"/>
<path d="M61.5744 264.175C61.1556 265.848 60.4261 267.191 59.386 268.204C58.3459 269.217 57.0254 269.818 55.4245 270.007C53.0491 270.288 51.0956 269.524 49.5642 267.715C48.0586 265.903 47.1025 263.136 46.696 259.415L45.0273 244.139L72.1388 240.936L73.7227 255.436C74.1179 259.054 73.7703 261.857 72.6797 263.845C71.592 265.858 69.9766 266.992 67.8335 267.245C66.5683 267.395 65.3969 267.206 64.3193 266.679C63.2446 266.177 62.3296 265.343 61.5744 264.175ZM66.7307 250.686L62.7028 251.162L63.1686 255.426C63.386 257.416 64.166 258.332 65.5087 258.174C66.8514 258.015 67.414 256.94 67.1966 254.95L66.7307 250.686ZM53.0018 257.884C53.222 259.9 54.0422 260.824 55.4623 260.656C56.8824 260.489 57.4824 259.397 57.2622 257.381L56.6608 251.876L52.4004 252.379L53.0018 257.884Z" fill="#00AAE7"/>
<path d="M85.2242 294.575C86.0657 296.952 86.4103 299.172 86.2579 301.234C86.1055 303.296 85.47 305.084 84.3515 306.598C83.2329 308.112 81.7024 309.24 79.7599 309.984C77.8174 310.728 75.9485 310.9 74.1533 310.502C72.3581 310.104 70.7597 309.172 69.358 307.704C67.9564 306.237 66.8349 304.315 65.9934 301.937L64.6791 298.224L58.4145 300.622L55.3434 291.946L80.8389 282.185L85.2242 294.575ZM72.427 298.848C72.8434 300.024 73.4107 300.809 74.1288 301.202C74.8712 301.586 75.7158 301.596 76.6628 301.234C77.6098 300.871 78.2341 300.298 78.5358 299.515C78.8618 298.722 78.8166 297.738 78.4002 296.561L77.2811 293.399L71.3079 295.686L72.427 298.848Z" fill="#00AAE7"/>
<path d="M107.335 353.642L112.197 359.989L103.308 367.354C101.467 366.788 99.668 365.849 97.9111 364.538C96.1541 363.227 94.651 361.756 93.4019 360.126C91.6311 357.814 90.5025 355.358 90.0162 352.758C89.5499 350.142 89.7445 347.619 90.5998 345.189C91.4909 342.764 92.9975 340.672 95.1197 338.913C97.2418 337.155 99.529 336.103 101.981 335.758C104.469 335.418 106.885 335.794 109.229 336.889C111.609 337.988 113.7 339.713 115.503 342.066C117.131 344.192 118.236 346.381 118.816 348.634C119.431 350.89 119.506 353.123 119.038 355.333L111.463 353.967C111.961 351.328 111.49 349.069 110.052 347.19C108.818 345.581 107.367 344.691 105.699 344.521C104.031 344.351 102.386 344.938 100.764 346.282C99.1827 347.592 98.2672 349.11 98.0177 350.835C97.7841 352.581 98.2681 354.238 99.4698 355.807C100.181 356.735 101.031 357.482 102.02 358.046L107.335 353.642Z" fill="#00AAE7"/>
<path d="M122.883 387.837C120.661 385.915 119.046 383.711 118.039 381.226C117.032 378.741 116.701 376.222 117.046 373.669C117.407 371.096 118.439 368.743 120.144 366.611C121.849 364.479 123.877 363.004 126.227 362.185C128.594 361.347 131.044 361.216 133.577 361.792C136.11 362.368 138.488 363.617 140.71 365.539C142.932 367.461 144.547 369.664 145.554 372.149C146.561 374.634 146.884 377.163 146.523 379.737C146.178 382.289 145.154 384.632 143.449 386.764C141.744 388.897 139.708 390.382 137.341 391.221C134.991 392.039 132.549 392.16 130.016 391.584C127.483 391.007 125.105 389.758 122.883 387.837ZM127.535 382.019C128.4 382.767 129.347 383.225 130.376 383.394C131.442 383.56 132.497 383.425 133.544 382.99C134.606 382.535 135.567 381.769 136.428 380.693C137.288 379.617 137.829 378.504 138.049 377.355C138.285 376.185 138.22 375.081 137.853 374.042C137.522 373 136.924 372.105 136.058 371.357C135.193 370.609 134.228 370.152 133.163 369.986C132.133 369.818 131.088 369.961 130.025 370.416C128.979 370.851 128.026 371.606 127.165 372.683C126.305 373.759 125.756 374.882 125.52 376.051C125.299 377.2 125.355 378.296 125.686 379.338C126.053 380.377 126.669 381.27 127.535 382.019Z" fill="#00AAE7"/>
<path d="M158.161 377.462L166.183 381.976L156.877 399.863L167.618 405.907L164.324 412.238L145.562 401.681L158.161 377.462Z" fill="#00AAE7"/>
<path d="M193.782 400.144L192.42 404.622L203.236 408.183L201.215 414.824L190.398 411.263L187.854 419.62L179.112 416.742L187.062 390.625L208.14 397.565L206.118 404.206L193.782 400.144Z" fill="#00AAE7"/>
<path d="M302.229 411.916L292.206 414.592L291.576 419.684L282.532 422.099L287.519 392.516L296.261 390.182L314.334 413.607L305.14 416.062L302.229 411.916ZM298.191 406.133L293.983 400.153L293.066 407.501L298.191 406.133Z" fill="#00AAE7"/>
<path d="M335.172 402.365C332.594 403.662 330.019 404.289 327.448 404.245C324.865 404.177 322.527 403.463 320.432 402.103C318.349 400.707 316.727 398.76 315.564 396.261C314.401 393.762 313.945 391.242 314.196 388.701C314.459 386.125 315.372 383.775 316.935 381.65C318.486 379.502 320.551 377.779 323.129 376.482C325.497 375.289 327.808 374.65 330.061 374.563C332.314 374.477 334.417 374.931 336.371 375.926L333.368 383.242C330.959 382.068 328.733 381.996 326.689 383.025C324.971 383.89 323.852 385.151 323.333 386.808C322.804 388.442 322.978 390.202 323.855 392.088C324.733 393.974 325.957 395.22 327.529 395.825C329.089 396.407 330.729 396.266 332.448 395.401C334.491 394.372 335.818 392.511 336.429 389.819L343.807 391.909C343.346 394.12 342.383 396.117 340.92 397.901C339.457 399.684 337.541 401.172 335.172 402.365Z" fill="#00AAE7"/>
<path d="M367.341 372.587L359.204 379.022L360.574 384L353.232 389.806L346.481 360.365L353.578 354.753L379.051 369.389L371.587 375.291L367.341 372.587ZM361.44 368.808L355.309 364.911L357.279 372.098L361.44 368.808Z" fill="#00AAE7"/>
<path d="M364.654 342.516L373.308 332.213C375.264 329.883 377.4 328.209 379.716 327.188C382.029 326.131 384.356 325.805 386.695 326.21C389.052 326.596 391.259 327.724 393.319 329.595C395.378 331.465 396.75 333.589 397.434 335.966C398.135 338.322 398.147 340.773 397.469 343.316C396.789 345.822 395.471 348.24 393.515 350.57L384.861 360.873L364.654 342.516ZM387.952 346.043C389.223 344.53 389.821 342.95 389.746 341.302C389.668 339.617 388.869 338.084 387.349 336.703C385.829 335.321 384.27 334.713 382.673 334.877C381.074 335.004 379.639 335.824 378.368 337.337L375.885 340.293L385.469 349L387.952 346.043Z" fill="#00AAE7"/>
<path d="M413.564 304.292L419.533 307.835L408.614 327.734L385.138 313.801L395.813 294.346L401.783 297.889L395.46 309.411L398.21 311.044L403.764 300.923L409.465 304.307L403.912 314.428L406.997 316.259L413.564 304.292Z" fill="#00AAE7"/>
<path d="M432.217 268.51L420.408 264.601L428.098 273.456L426.889 277.327L416.069 279.927L427.449 283.772L424.948 291.776L399.085 283.035L401.341 275.814L417.774 271.984L406.575 259.062L408.831 251.84L434.718 260.506L432.217 268.51Z" fill="#00AAE7"/>
<path d="M426.41 232.344L436.252 233.472L435.282 242.625L425.324 241.484L407.074 249.755L408.097 240.098L418.062 235.627L409.277 228.967L410.214 220.125L426.41 232.344Z" fill="#00AAE7"/>
</svg>
