<svg width="481" height="481" viewBox="0 0 481 481" fill="none" xmlns="http://www.w3.org/2000/svg">
<path fill-rule="evenodd" clip-rule="evenodd" d="M451 240.5C451 356.756 356.756 451 240.5 451C237.438 451 234.391 450.935 231.361 450.805V470.822C234.393 470.94 237.439 471 240.5 471C367.802 471 471 367.802 471 240.5C471 113.198 367.802 10 240.5 10C113.198 10 10 113.198 10 240.5C10 354.285 92.4477 448.814 200.861 467.605V447.274C103.555 428.732 30 343.206 30 240.5C30 124.244 124.244 30 240.5 30C356.756 30 451 124.244 451 240.5Z" fill="#0C2E6E"/>
<path fill-rule="evenodd" clip-rule="evenodd" d="M231.463 253.95V453.841H251.463V253.95H231.463ZM231.463 226.123H251.463V17.8848H231.463V226.123Z" fill="#0C2E6E"/>
<path fill-rule="evenodd" clip-rule="evenodd" d="M344.205 253.95C341.689 269.428 334.66 282.608 323.154 292.681C308.187 305.784 283.386 315.576 245.137 315.576C244.044 315.576 242.962 315.568 241.891 315.552V335.554C242.965 335.568 244.047 335.576 245.137 335.576C320.936 335.576 358.458 300.089 364.41 253.95H344.205ZM364.296 226.123C358.031 180.436 320.848 145.425 245.137 145.425C244.047 145.425 242.965 145.432 241.891 145.447V165.448C242.962 165.433 244.044 165.425 245.137 165.425C283.645 165.425 308.42 175.229 323.306 188.301C334.525 198.152 341.449 211.003 344.065 226.123H364.296Z" fill="#0C2E6E"/>
<path d="M61.0744 264.175C60.6556 265.848 59.9261 267.191 58.886 268.204C57.8459 269.217 56.5254 269.818 54.9245 270.007C52.5491 270.288 50.5956 269.524 49.0642 267.715C47.5586 265.903 46.6025 263.136 46.196 259.415L44.5273 244.139L71.6388 240.936L73.2227 255.436C73.6179 259.054 73.2703 261.857 72.1797 263.845C71.092 265.858 69.4766 266.992 67.3335 267.245C66.0683 267.395 64.8969 267.206 63.8193 266.679C62.7446 266.177 61.8296 265.343 61.0744 264.175ZM66.2307 250.686L62.2028 251.162L62.6686 255.426C62.886 257.416 63.666 258.332 65.0087 258.174C66.3514 258.015 66.914 256.94 66.6966 254.95L66.2307 250.686ZM52.5018 257.884C52.722 259.9 53.5422 260.824 54.9623 260.656C56.3824 260.489 56.9824 259.397 56.7622 257.381L56.1608 251.876L51.9004 252.379L52.5018 257.884Z" fill="#0C2E6E"/>
<path d="M84.7242 294.575C85.5657 296.952 85.9103 299.172 85.7579 301.234C85.6055 303.296 84.97 305.084 83.8515 306.598C82.7329 308.112 81.2024 309.24 79.2599 309.984C77.3174 310.728 75.4485 310.9 73.6533 310.502C71.8581 310.104 70.2597 309.172 68.858 307.704C67.4564 306.237 66.3349 304.315 65.4934 301.937L64.1791 298.224L57.9145 300.622L54.8434 291.946L80.3389 282.185L84.7242 294.575ZM71.927 298.848C72.3434 300.024 72.9107 300.809 73.6288 301.202C74.3712 301.586 75.2158 301.596 76.1628 301.234C77.1098 300.871 77.7341 300.298 78.0358 299.515C78.3618 298.722 78.3166 297.738 77.9002 296.561L76.7811 293.399L70.8079 295.686L71.927 298.848Z" fill="#0C2E6E"/>
<path d="M106.835 353.642L111.697 359.989L102.808 367.354C100.967 366.788 99.168 365.849 97.4111 364.538C95.6541 363.227 94.151 361.756 92.9019 360.126C91.1311 357.814 90.0025 355.358 89.5162 352.758C89.0499 350.142 89.2445 347.619 90.0998 345.189C90.9909 342.764 92.4975 340.672 94.6197 338.913C96.7418 337.155 99.029 336.103 101.481 335.758C103.969 335.418 106.385 335.794 108.729 336.889C111.109 337.988 113.2 339.713 115.003 342.066C116.631 344.192 117.736 346.381 118.316 348.634C118.931 350.89 119.006 353.123 118.538 355.333L110.963 353.967C111.461 351.328 110.99 349.069 109.552 347.19C108.318 345.581 106.867 344.691 105.199 344.521C103.531 344.351 101.886 344.938 100.264 346.282C98.6827 347.592 97.7672 349.11 97.5177 350.835C97.2841 352.581 97.7681 354.238 98.9698 355.807C99.6813 356.735 100.531 357.482 101.52 358.046L106.835 353.642Z" fill="#0C2E6E"/>
<path d="M122.383 387.837C120.161 385.915 118.546 383.711 117.539 381.226C116.532 378.741 116.201 376.222 116.546 373.669C116.907 371.096 117.939 368.743 119.644 366.611C121.349 364.479 123.377 363.004 125.727 362.185C128.094 361.347 130.544 361.216 133.077 361.792C135.61 362.368 137.988 363.617 140.21 365.539C142.432 367.461 144.047 369.664 145.054 372.149C146.061 374.634 146.384 377.163 146.023 379.737C145.678 382.289 144.654 384.632 142.949 386.764C141.244 388.897 139.208 390.382 136.841 391.221C134.491 392.039 132.049 392.16 129.516 391.584C126.983 391.007 124.605 389.758 122.383 387.837ZM127.035 382.019C127.9 382.767 128.847 383.225 129.876 383.394C130.942 383.56 131.997 383.425 133.044 382.99C134.106 382.535 135.067 381.769 135.928 380.693C136.788 379.617 137.329 378.504 137.549 377.355C137.785 376.185 137.72 375.081 137.353 374.042C137.022 373 136.424 372.105 135.558 371.357C134.693 370.609 133.728 370.152 132.663 369.986C131.633 369.818 130.588 369.961 129.525 370.416C128.479 370.851 127.526 371.606 126.665 372.683C125.805 373.759 125.256 374.882 125.02 376.051C124.799 377.2 124.855 378.296 125.186 379.338C125.553 380.377 126.169 381.27 127.035 382.019Z" fill="#0C2E6E"/>
<path d="M157.661 377.462L165.683 381.976L156.377 399.863L167.118 405.907L163.824 412.238L145.062 401.681L157.661 377.462Z" fill="#0C2E6E"/>
<path d="M193.282 400.144L191.92 404.622L202.736 408.183L200.715 414.824L189.898 411.263L187.354 419.62L178.612 416.742L186.562 390.625L207.64 397.565L205.618 404.206L193.282 400.144Z" fill="#0C2E6E"/>
<path d="M301.729 411.916L291.706 414.592L291.076 419.684L282.032 422.099L287.019 392.516L295.761 390.182L313.834 413.607L304.64 416.062L301.729 411.916ZM297.691 406.133L293.483 400.153L292.566 407.501L297.691 406.133Z" fill="#0C2E6E"/>
<path d="M334.672 402.365C332.094 403.662 329.519 404.289 326.948 404.245C324.365 404.177 322.027 403.463 319.932 402.103C317.849 400.707 316.227 398.76 315.064 396.261C313.901 393.762 313.445 391.242 313.696 388.701C313.959 386.125 314.872 383.775 316.435 381.65C317.986 379.502 320.051 377.779 322.629 376.482C324.997 375.289 327.308 374.65 329.561 374.563C331.814 374.477 333.917 374.931 335.871 375.926L332.868 383.242C330.459 382.068 328.233 381.996 326.189 383.025C324.471 383.89 323.352 385.151 322.833 386.808C322.304 388.442 322.478 390.202 323.355 392.088C324.233 393.974 325.457 395.22 327.029 395.825C328.589 396.407 330.229 396.266 331.948 395.401C333.991 394.372 335.318 392.511 335.929 389.819L343.307 391.909C342.846 394.12 341.883 396.117 340.42 397.901C338.957 399.684 337.041 401.172 334.672 402.365Z" fill="#0C2E6E"/>
<path d="M366.841 372.587L358.704 379.022L360.074 384L352.732 389.806L345.981 360.365L353.078 354.753L378.551 369.389L371.087 375.291L366.841 372.587ZM360.94 368.808L354.809 364.911L356.779 372.098L360.94 368.808Z" fill="#0C2E6E"/>
<path d="M364.154 342.516L372.808 332.213C374.764 329.883 376.9 328.209 379.216 327.188C381.529 326.131 383.856 325.805 386.195 326.21C388.552 326.596 390.759 327.724 392.819 329.595C394.878 331.465 396.25 333.589 396.934 335.966C397.635 338.322 397.647 340.773 396.969 343.316C396.289 345.822 394.971 348.24 393.015 350.57L384.361 360.873L364.154 342.516ZM387.452 346.043C388.723 344.53 389.321 342.95 389.246 341.302C389.168 339.617 388.369 338.084 386.849 336.703C385.329 335.321 383.77 334.713 382.173 334.877C380.574 335.004 379.139 335.824 377.868 337.337L375.385 340.293L384.969 349L387.452 346.043Z" fill="#0C2E6E"/>
<path d="M413.064 304.292L419.033 307.835L408.114 327.734L384.638 313.801L395.313 294.346L401.283 297.889L394.96 309.411L397.71 311.044L403.264 300.923L408.965 304.307L403.412 314.428L406.497 316.259L413.064 304.292Z" fill="#0C2E6E"/>
<path d="M431.717 268.51L419.908 264.601L427.598 273.456L426.389 277.327L415.569 279.927L426.949 283.772L424.448 291.776L398.585 283.035L400.841 275.814L417.274 271.984L406.075 259.062L408.331 251.84L434.218 260.506L431.717 268.51Z" fill="#0C2E6E"/>
<path d="M425.91 232.344L435.752 233.472L434.782 242.625L424.824 241.484L406.574 249.755L407.597 240.098L417.562 235.627L408.777 228.967L409.714 220.125L425.91 232.344Z" fill="#0C2E6E"/>
</svg>
